<?xml version="1.0" encoding="UTF-8" standalone="no"?>
<!-- Created with Inkscape (http://www.inkscape.org/) -->

<svg
   version="1.1"
   id="svg1"
   width="4898.6665"
   height="1330.6667"
   viewBox="0 0 4898.6665 1330.6667"
   sodipodi:docname="ub.svg"
   inkscape:export-filename="logo_ub_negre.png"
   inkscape:export-xdpi="96"
   inkscape:export-ydpi="96"
   inkscape:version="1.3.1 (9b9bdc1480, 2023-11-25, custom)"
   xmlns:inkscape="http://www.inkscape.org/namespaces/inkscape"
   xmlns:sodipodi="http://sodipodi.sourceforge.net/DTD/sodipodi-0.dtd"
   xmlns="http://www.w3.org/2000/svg"
   xmlns:svg="http://www.w3.org/2000/svg">
  <defs
     id="defs1" />
  <sodipodi:namedview
     id="namedview1"
     pagecolor="#ffffff"
     bordercolor="#000000"
     borderopacity="0.25"
     inkscape:showpageshadow="2"
     inkscape:pageopacity="0.0"
     inkscape:pagecheckerboard="0"
     inkscape:deskcolor="#d1d1d1"
     inkscape:zoom="0.26394938"
     inkscape:cx="2451.2276"
     inkscape:cy="363.7061"
     inkscape:window-width="1862"
     inkscape:window-height="910"
     inkscape:window-x="0"
     inkscape:window-y="0"
     inkscape:window-maximized="1"
     inkscape:current-layer="g1" />
  <g
     inkscape:groupmode="layer"
     inkscape:label="Image"
     id="g1">
    <path
       style="fill:#000000"
       d="m 426.13538,1329.0297 c -0.44219,-1.65 -0.81216,-4.35 -0.82218,-6 -0.0166,-2.7393 -0.64522,-3 -7.23434,-3 h -7.21614 l -0.90106,5.3334 -0.90106,5.3333 h -6.57487 c -6.5027,0 -6.56496,-0.04 -5.67151,-3.6667 0.49685,-2.0166 3.68645,-14.4666 7.08801,-27.6666 l 6.18466,-24 8.60405,0.4649 c 4.73223,0.2557 8.81167,0.6633 9.06543,0.9058 0.36947,0.3531 5.24748,22.0131 11.62731,51.6293 0.77842,3.6135 0.69401,3.6666 -5.82724,3.6666 -5.73507,0 -6.72426,-0.3998 -7.42106,-3 z m -4.45886,-26.7777 c -0.95021,-5.2556 -2.11582,-11.9556 -2.59026,-14.8889 l -0.86261,-5.3334 -0.98876,4.6667 c -0.54382,2.5667 -1.68176,8.4432 -2.52876,13.0588 -0.84699,4.6157 -1.856,9.2157 -2.24224,10.2223 -0.52916,1.3789 0.7326,1.83 5.11901,1.83 h 5.82126 z m -46.38152,27.2452 -5.33334,-0.8008 -0.36231,-26.571 c -0.21085,-15.4634 0.16528,-27.0986 0.89976,-27.8331 0.70726,-0.7073 3.95553,-0.8582 7.3891,-0.3433 l 6.12703,0.9188 -0.36012,27.4708 c -0.22253,16.9748 -0.86956,27.5641 -1.69346,27.7151 -0.73333,0.1343 -3.73333,-0.1161 -6.66666,-0.5565 z m -30.35623,-2.4401 c -3.32491,-0.3471 -5.6538,-1.5109 -6.88921,-3.4425 -4.30939,-6.7382 -13.16905,-28.5234 -14.54554,-35.7665 -0.8172,-4.3001 -1.81708,-7.8184 -2.22196,-7.8184 -0.40488,0 -0.49917,9.8167 -0.20953,21.8149 l 0.52662,21.8148 -5.15207,-0.8366 -5.15208,-0.8366 -0.36092,-27.8203 -0.36092,-27.8204 6.95099,0.9221 c 3.82304,0.5072 7.33914,1.162 7.81355,1.4552 2.19715,1.3579 11.94605,26.267 13.42706,34.3069 0.91181,4.95 2.22913,9 2.92737,9 0.70524,0 0.90654,-1.815 0.45287,-4.0833 -0.44916,-2.2458 -1.2156,-11.5458 -1.7032,-20.6666 l -0.88654,-16.5834 3.2032,0.018 c 1.76176,0.01 4.55321,0.38 6.20321,0.8222 2.98967,0.8012 3,0.8998 3,28.6485 0,15.3144 -0.45,27.7436 -1,27.6203 -0.55,-0.1233 -3.26031,-0.4601 -6.0229,-0.7485 z m 137.68956,-27.0274 c 0,-21.5032 0.38671,-28.0034 1.66666,-28.0146 0.91667,-0.01 3.95634,-0.393 6.75483,-0.8555 l 5.08815,-0.8407 -0.42149,23.5388 c -0.34399,19.2108 -0.0942,23.4128 1.35862,22.8537 0.97906,-0.3768 5.02906,-1.0669 9,-1.5336 l 7.21989,-0.8485 v 4.7898 c 0,5.3393 1.48591,4.7254 -18.2554,7.5424 -5.27381,0.7525 -10.22381,1.3682 -11,1.3682 -0.94799,0 -1.41126,-9.1914 -1.41126,-28 z m 45.57426,16.9231 c -0.67143,-2.4317 -4.08738,-14.1472 -7.591,-26.0343 -3.50362,-11.8871 -6.08574,-21.8974 -5.73804,-22.2451 0.3477,-0.3477 3.37153,-1.0076 6.71962,-1.4666 l 6.08744,-0.8343 3.42502,15.1619 c 1.8838,8.3391 3.8674,18.162 4.408,21.8287 0.7912,5.3663 1.0693,5.8864 1.4259,2.6666 0.6419,-5.7965 5.6109,-32.4897 7.1146,-38.2196 1.1458,-4.3658 1.8579,-4.9836 6.6848,-5.799 2.9713,-0.502 5.6646,-0.6505 5.9851,-0.33 0.7901,0.79 -13.7477,55.8944 -15.0571,57.0729 -0.5713,0.5141 -3.5597,1.314 -6.6411,1.7774 -5.46206,0.8215 -5.63305,0.7319 -6.82324,-3.5786 z m -241.57426,0.5363 -3.33333,-0.9414 0.20037,-22.2555 c 0.11622,-12.909 -0.30375,-21.9439 -1,-21.5136 -0.6602,0.408 -1.24479,2.6564 -1.29909,4.9965 -0.0543,2.3401 -2.01139,11.1546 -4.3491,19.588 -4.19125,15.12 -4.30496,15.3333 -8.17501,15.3333 h -3.92465 l -4.33943,-18.6667 c -2.38668,-10.2666 -4.3635,-20.5812 -4.39292,-22.9213 -0.0294,-2.34 -0.59165,-4.5872 -1.24939,-4.9937 -0.69824,-0.4315 -0.89357,8.4133 -0.4694,21.2546 0.79835,24.1691 1.06363,23.4041 -7.33471,21.1534 -2.99007,-0.8013 -3,-0.8965 -3,-28.7383 0,-25.9846 0.16286,-27.885 2.33333,-27.2274 1.28334,0.3888 4.93005,1.276 8.10382,1.9715 3.17377,0.6954 5.99329,1.4872 6.2656,1.7596 1.0388,1.0388 5.7913,24.8115 6.67879,33.4083 0.51102,4.95 1.3722,9 1.91374,9 0.54154,0 1.33366,-4.05 1.76027,-9 0.99263,-11.5178 5.08346,-28.4704 7.05252,-29.226 0.83495,-0.3204 4.7522,0.2365 8.70501,1.2374 l 7.18692,1.82 0.36038,27.5843 c 0.39649,30.3477 0.85075,28.7903 -7.69372,26.377 z m 286.3239,-8.1611 c -1.2885,-0.7927 -3.5385,-3.7852 -5,-6.65 -3.3559,-6.5781 -3.6413,-23.2853 -0.5526,-32.3502 3.9914,-11.7141 17.4304,-19.9267 28.3889,-17.3485 4.7251,1.1117 4.8493,1.3035 5.2428,8.0945 0.3547,6.122 0.094,6.9559 -2.1701,6.9559 -1.4152,0 -3.3455,-0.9306 -4.2895,-2.068 -2.6446,-3.1867 -9.2107,-1.8964 -12.4371,2.444 -5.1423,6.9177 -4.3452,27.6959 1.1433,29.802 3.6551,1.4026 8.8225,-0.8697 11.1065,-4.8841 1.2341,-2.169 3.2938,-3.9475 4.5772,-3.9521 1.9035,-0.01 2.3333,1.1861 2.3333,6.4769 0,6.0828 -0.3377,6.7194 -5.4411,10.2561 -5.9776,4.1424 -18.535,5.91 -22.9016,3.2235 z m 43.3153,-35.4344 0.3607,-27.6934 14.6667,-4.4003 c 8.0667,-2.4201 14.8529,-4.4085 15.0805,-4.4186 0.2276,-0.01 0.2276,2.2318 0,4.9818 -0.4112,4.968 -0.4735,5.017 -9.7472,7.6666 l -9.3333,2.6667 0.411,6.4462 c 0.3469,5.4414 0.7626,6.305 2.6667,5.5406 3.513,-1.4104 14.1335,-4.623 15.3361,-4.639 0.5943,-0.01 0.8943,2.199 0.6667,4.9043 -0.4108,4.8831 -0.4813,4.9369 -9.7472,7.4419 l -9.3333,2.5233 0.462,6.558 c 0.2541,3.6069 0.9102,6.558 1.458,6.558 0.5477,0 4.4837,-1.2 8.7467,-2.6666 4.2629,-1.4667 8.2931,-2.6667 8.9559,-2.6667 0.6628,0 1.0188,2.2209 0.7912,4.9354 l -0.4138,4.9354 -12,3.6936 c -6.6,2.0314 -13.6623,4.0608 -15.694,4.5098 l -3.6941,0.8164 z m -408.80617,24.2279 c -12.49438,-4.5759 -18.58522,-16.0941 -18.49836,-34.9815 0.0566,-12.3127 2.41069,-18.2221 8.65522,-21.727 2.97067,-1.6674 4.50599,-1.7146 9.7926,-0.3006 9.08511,2.4299 13.77696,6.3609 17.62554,14.7673 2.8334,6.1889 3.40352,9.4268 3.42551,19.454 0.0444,20.2348 -7.02529,27.9061 -21.00051,22.7878 z m 7.26926,-15.7584 c 1.71331,-6.3109 0.8866,-21.9943 -1.3829,-26.2349 -0.79594,-1.4872 -2.69783,-3.3733 -4.22642,-4.1914 -4.82644,-2.5831 -5.8263,0.2701 -5.8263,16.6258 0,16.2896 1.10643,19.4671 6.77854,19.4671 2.53883,0 3.40471,-1.0535 4.65708,-5.6666 z m -90.86256,-23.5307 c -4.6051,-2.4697 -9.23972,-9.5683 -9.23972,-14.1518 0,-4.3321 3.77709,-8.6509 7.5658,-8.6509 2.18867,0 5.27308,1.8585 8.59106,5.1765 4.28551,4.2855 5.17647,6.0933 5.17647,10.5034 0,7.9533 -5.02578,10.9133 -12.09361,7.1228 z m 578.11577,-0.6592 c -4.0037,-4.0037 -4.0685,-5.1105 -0.7302,-12.4647 3.2187,-7.0907 10.1235,-10.9806 15.3025,-8.6209 6.4962,2.9599 5.6675,12.4168 -1.6914,19.3024 -5.5813,5.2223 -8.9723,5.6918 -12.8809,1.7832 z M 384.78978,1230.647 c -74.76393,-5.1964 -160.89351,-25.744 -241.49477,-57.6124 -36.14454,-14.2909 -74.446575,-32.6748 -99.719905,-47.8627 -28.59048,-17.1814 -36.6567105,-25.1089 -39.6174105,-38.936 -1.06124,-4.9563 -1.35883,-131.05893 -1.06715,-452.20623 l 0.40446,-445.33331 3.71325,-6.31692 c 2.04229,-3.47431 5.9422905,-7.84057 8.6666705,-9.70281 8.75497,-5.98443 70.162203,-24.8519 123.620085,-37.98246 141.0635,-34.64865 271.14046,-43.54306 398.66662,-27.26006 77.1625,9.85239 177.0166,32.17519 259.6182,58.03874 19.159,5.99891 26.4606,10.59245 31.7151,19.95244 l 3.3333,5.93774 v 446.66664 c 0,434.92163 -0.066,446.83863 -2.5218,453.20483 -4.6282,11.9993 -14.5724,20.3774 -44.8115,37.7543 -73.5755,42.28 -181.4099,79.6682 -271.99994,94.3073 -43.3464,7.0047 -92.79164,9.8331 -128.50521,7.3509 z m 20.17675,-201.6173 -0.3382,-177.66663 H 215.96167 27.295005 l -0.33535,114 c -0.31282,106.33983 -0.17843,114.31353 2,118.66663 5.65388,11.298 64.653903,43.2879 123.285155,66.8454 26.8057,10.7703 73.88892,26.3421 99.71686,32.9794 50.47081,12.9701 107.78875,22.1386 141.67153,22.6617 l 11.67153,0.1802 z m -66.3382,138.166 c -6.96666,-1.0481 -13.41666,-2.1704 -14.33333,-2.494 -1.31895,-0.4655 -1.66667,-29.6659 -1.66667,-139.9635 V 885.36307 h 16.66667 16.66666 v 142.00003 c 0,134.399 -0.12489,141.993 -2.33333,141.8691 -1.28333,-0.072 -8.03333,-0.9884 -15,-2.0365 z M 265.295,1152.4995 c -4.03333,-1.0751 -11.38333,-3.146 -16.33333,-4.602 l -9,-2.6474 V 1015.3066 885.36307 h 16.66666 16.66667 v 134.66663 c 0,74.0667 -0.15,134.6122 -0.33333,134.5456 -0.18334,-0.067 -3.63334,-1.0008 -7.66667,-2.0758 z m -91.33333,-30.3554 -14.66667,-5.7384 -0.34069,-115.5213 -0.3407,-115.52133 h 16.67403 16.67403 v 121.33333 c 0,96.217 -0.345,121.3181 -1.66667,121.2598 -0.91666,-0.041 -8.26666,-2.6559 -16.33333,-5.8121 z m -82.333332,-37.0118 -15.666673,-8.1578 v -95.80573 -95.8057 H 92.628338 109.29501 V 989.3631 c 0,57.2 -0.45,103.9835 -1,103.9634 -0.55,-0.02 -8.05,-3.7075 -16.666672,-8.1942 z m 394.999992,117.6466 c 104.0728,-13.398 222.9733,-54.4801 303.3333,-104.8068 21.0152,-13.1611 18.6666,3.3256 18.6666,-131.03983 v -115.5692 l -187.8578,-0.338 c -137.72889,-0.2478 -188.3404,0.063 -189.66657,1.1633 -1.50628,1.2501 -1.80886,31.0614 -1.80886,178.21203 v 176.7108 l 18.33333,-0.8359 c 10.08333,-0.4597 27.63333,-2.0331 39,-3.4964 z m 115.7088,-115.6654 -0.3755,-55.3213 -3.1477,-2.5479 c -3.0039,-2.4314 -6.1579,-2.5479 -68.99998,-2.5479 h -65.85229 v -16 -16 h 66.06057 66.0606 l 3.2727,-3.2727 3.2727,-3.2728 v -51.39393 -51.3939 h 16.6667 16.6667 v 51.3939 51.39393 l 3.2727,3.2728 3.2727,3.2727 h 66.0606 66.0606 v 16 16 h -66.0606 -66.0606 l -3.2727,3.2727 -3.2727,3.2728 v 49.0932 49.0933 l -16.6245,5.5031 -16.6246,5.5032 z M 405.295,675.36297 V 522.69637 H 215.96167 26.628335 v 151.7778 c 0,83.4777 0.4,152.1777 0.88889,152.6666 0.48889,0.4889 85.688895,0.8889 189.333335,0.8889 H 405.295 Z m -205.61919,69.4718 c -0.35686,-45.4762 -0.53986,-48.7039 -2.90973,-51.3211 -2.49462,-2.755 -3.43506,-2.7976 -69.33333,-3.1384 l -66.804415,-0.3456 -0.37437,-16.3333 -0.37437,-16.3334 h 66.128695 c 40.58533,0 67.07071,-0.5041 68.56746,-1.3051 4.80682,-2.5726 5.38592,-8.4032 5.38592,-54.2272 v -44.4677 h 16 16 v 45.3996 c 0,47.6033 0.45272,51.6206 6.05974,53.7722 1.1871,0.4555 31.82775,0.8282 68.09034,0.8282 h 65.93199 l -0.37437,16.3334 -0.37437,16.3333 -66.80441,0.3456 c -65.89827,0.3408 -66.83871,0.3834 -69.33333,3.1384 -2.36987,2.6172 -2.55287,5.8449 -2.90973,51.3211 l -0.38081,48.5283 h -15.90505 -15.90505 z m 609.61912,-69.4763 v -152.6713 l -189.6667,0.3379 -189.66657,0.3379 -0.34327,150.6667 c -0.1888,82.8667 -0.0576,151.4167 0.29148,152.3334 0.5037,1.3225 39.73723,1.6666 190.00986,1.6666 h 189.3752 z m -329.33327,0 v -117.9955 h 16 16 v 118 118.0001 h -16 -16 z m 81.33327,0 v -117.9955 h 16.6667 16.6666 v 118 118.0001 h -16.6666 -16.6667 z m 82.6667,0 v -117.9955 h 16.6666 16.6667 v 118 118.0001 h -16.6667 -16.6666 z m 82.6666,0 v -117.9955 h 16.6667 16.6667 v 118 118.0001 h -16.6667 -16.6667 z m 82.6646,-323.6671 c 0,-137.31571 -0.1556,-147.3012 -2.3333,-151.57189 -1.2822,-2.51454 -3.8313,-5.64732 -5.6646,-6.96175 -7.3562,-5.27407 -104.379,-32.02035 -156,-43.0045 -44.9298,-9.56039 -101.561,-18.25657 -149.99994,-23.03374 -34.48171,-3.40066 -129.13784,-3.40505 -165.99999,-0.008 -89.83501,8.27954 -173.30219,24.98122 -261.470235,52.31987 -31.84681,9.87488 -34.85945,11.15527 -38.18387,16.22837 -2.1983,3.35462 -2.36827,12.99961 -2.70167,153.30554 l -0.35578,149.7261 H 417.93922 809.29493 Z m -626.55338,113.1538 c 0.95366,-0.8804 60.15906,-39.1792 99.01268,-64.0493 39.99696,-25.6021 43.62286,-27.5419 47.24345,-25.2752 2.86752,1.7953 3.65848,8.4302 1.35816,11.3929 -0.94898,1.2222 -22.93074,19.3722 -48.84836,40.3333 l -47.12296,38.1111 h -26.09926 c -14.3546,0 -25.84927,-0.2307 -25.54371,-0.5128 z m 111.88888,-0.233 c 0,-1.0537 42.32803,-53.4102 48.12689,-59.5292 4.93736,-5.2101 9.8698,-6.5283 12.93978,-3.4583 3.89984,3.8998 1.57325,9.1716 -16.06667,36.4052 l -17.66666,27.2749 -13.66667,0.027 c -7.51667,0.015 -13.66667,-0.309 -13.66667,-0.7192 z m 64,0 c 0,-1.6712 16.37653,-42.8032 18.14944,-45.585 2.11139,-3.3127 8.22096,-4.0962 10.91723,-1.4 2.60493,2.605 1.90498,8.653 -3.32537,28.7334 l -4.94895,19 h -10.39617 c -5.7179,0 -10.39618,-0.3368 -10.39618,-0.7484 z m 50.0101,-13.585 c 1.35245,-25.4759 2.69431,-29.6666 9.49915,-29.6666 5.56905,0 7.01763,4.5376 7.9968,25.0495 l 0.90463,18.9505 h -9.58075 -9.58076 z m 42.77448,-4.985 c -2.81485,-10.6251 -5.11791,-20.8233 -5.11791,-22.6626 0,-6.5039 6.15924,-9.5743 11.40555,-5.6857 1.69943,1.2597 19.59444,44.3045 19.59444,47.1326 0,0.2938 -4.67193,0.5341 -10.38208,0.5341 h -10.38208 z m 45.21505,-6.9177 c -19.63813,-30.4655 -20.18472,-31.5987 -17.33765,-35.9439 2.6449,-4.0366 7.85565,-4.1047 11.74717,-0.1534 4.25511,4.3205 50.25745,60.6906 50.25745,61.5842 0,0.412 -6.2449,0.7492 -13.87755,0.7492 h -13.87761 z m 93.16647,17.1536 c -5.9586,-4.9046 -27.7014,-22.5841 -48.3172,-39.2878 -39.17147,-31.7381 -41.61051,-34.3682 -36.80028,-39.6834 2.68471,-2.9666 6.13571,-3.3217 10.35194,-1.0653 2.77902,1.4873 95.06574,60.5895 123.26604,78.9419 7.5167,4.8918 13.6667,9.1828 13.6667,9.5356 0,0.3528 -11.55,0.6044 -25.6667,0.559 l -25.6667,-0.082 z M 59.961665,432.21437 v -21.1485 l 20.33334,-5.6325 c 11.183333,-3.0979 62.033335,-17.2415 112.999995,-31.4302 122.82487,-34.1935 114.97915,-32.2 119.18467,-30.2838 4.24684,1.9349 4.77634,8.059 0.99286,11.483 -2.46389,2.2298 -32.10533,13.9304 -135.51086,53.4917 -29.33333,11.2224 -67.3521,25.8639 -84.486152,32.5367 -17.134053,6.6727 -31.684053,12.1322 -32.333333,12.1322 -0.64929,0 -1.18052,-9.5168 -1.18052,-21.1486 z m 678.666565,7.7288 c -18.7,-7.3097 -56.2,-21.7604 -83.3333,-32.1126 -71.493,-27.2769 -126.96234,-48.8739 -131.33745,-51.1364 -2.09376,-1.0827 -4.19912,-3.2046 -4.67857,-4.7152 -1.25303,-3.9479 2.63646,-9.2826 6.76791,-9.2826 1.84636,0 22.68251,5.3497 46.30251,11.8883 23.6201,6.5386 76.8456,21.2713 118.2789,32.7394 80.017,22.1474 84.4813,23.4752 84.1878,25.0389 -0.1033,0.55 -0.1878,10 -0.1878,21 0,11 -0.45,19.9709 -1,19.9353 -0.55,-0.036 -16.3,-6.0454 -35,-13.3551 z m -338.3037,-52.496 c -25.30964,-6.1328 -46.79413,-27.1846 -54.38231,-53.2871 -2.59232,-8.9172 -2.92263,-26.247 -0.68865,-36.1304 5.67295,-25.0978 27.07322,-47.32543 52.70809,-54.7458 11.36124,-3.28867 30.72226,-3.02313 42,0.57603 24.57791,7.84376 43.7169,27.59575 49.95841,51.55857 2.61564,10.0421 2.61743,28.5068 0.004,38.5415 -6.8047,26.125 -30.21254,48.5275 -56.3611,53.9404 -9.14925,1.894 -24.41046,1.6859 -33.23817,-0.4532 z m 38.84804,-25.1899 c 4.10454,-1.8792 10.65753,-6.4381 14.56218,-10.1309 21.46653,-20.3022 21.88666,-52.5639 0.95707,-73.49349 -25.55098,-25.55099 -66.87944,-18.53995 -83.39682,14.14759 -3.68788,7.2982 -4,9.0083 -4,21.9159 0,11.7371 0.48902,15.0604 3.02549,20.5604 6.33136,13.7289 18.09113,24.3238 32.18642,28.9981 10.58457,3.5102 26.53303,2.6412 36.66566,-1.9976 z m -378.912295,-47.8942 0.36806,-20.3334 6.66667,0.3434 c 149.550005,7.7031 236.594595,12.8376 239.333325,14.1174 4.72117,2.2063 5.38132,9.3667 1.07787,11.6913 -2.09378,1.131 -39.95339,3.7022 -118.4112,8.0417 -63.43333,3.5086 -118.498955,6.4003 -122.368055,6.426 l -7.03473,0.047 z m 581.138055,13.6925 c -111.62023,-6.25 -112.58361,-6.328 -114.99993,-9.312 -3.14304,-3.8815 -3.07203,-4.8665 0.6168,-8.5553 2.70057,-2.7006 4.81983,-3.1525 18.33333,-3.91 8.4038,-0.471 60.2797,-3.2531 115.2797,-6.1823 55,-2.9293 103.15,-5.5419 107,-5.8058 l 7,-0.4799 v 20.4431 20.443 l -10.3333,-0.169 c -5.6833,-0.093 -60.9868,-3.0053 -122.8966,-6.4718 z M 245.295,269.92728 c -32.63333,-9.11805 -86.63333,-24.08005 -119.99999,-33.24889 -33.366672,-9.16885 -61.853935,-17.17071 -63.305035,-17.78191 -3.02419,-1.2738 4.78273,-4.08348 38.833155,-13.97587 l 20.1948,-5.86703 35.8052,13.74062 c 19.69286,7.55733 62.43361,23.95493 94.97945,36.43909 32.54583,12.48417 60.29583,23.71351 61.66666,24.9541 2.81493,2.54747 3.30185,8.49956 0.89243,10.90898 -0.88,0.88 -3.43,1.5571 -5.66667,1.5046 -2.23667,-0.053 -30.76667,-7.55565 -63.4,-16.67369 z m 275.25349,13.50099 c -2.7116,-4.13838 -1.49745,-8.19408 3.17433,-10.60334 3.71812,-1.91746 45.95501,-18.29849 137.12101,-53.18059 l 53.5488,-20.48896 19.7845,5.68248 c 30.2941,8.70105 39.4246,11.74379 39.337,13.10909 -0.044,0.68782 -9.5615,3.85726 -21.1497,7.0432 -11.5882,3.18593 -66.4019,18.37317 -121.8082,33.74941 -55.4062,15.37625 -102.34235,27.95681 -104.3025,27.95681 -2.31123,0 -4.31659,-1.1487 -5.70524,-3.2681 z M 279.96167,227.60311 c -23.1,-14.85491 -49.44991,-31.87266 -58.55535,-37.81722 l -16.55536,-10.80828 7.22202,-1.44286 c 3.97211,-0.79357 12.73433,-2.42619 19.4716,-3.62804 l 12.24958,-2.18518 9.75042,7.90463 c 5.36273,4.34755 24.45042,19.80173 42.41709,34.34263 17.96666,14.54089 33.41666,27.36782 34.33333,28.50429 2.11661,2.62413 2.15371,8.53624 0.0667,10.62329 -3.75264,3.75264 -9.22878,0.98271 -50.4,-25.49326 z m 224.71528,24.48032 c -1.55001,-1.71275 -2.08778,-3.71621 -1.56093,-5.81534 0.53836,-2.14498 14.56872,-14.3383 42.49131,-36.92781 22.9282,-18.54899 42.7185,-34.60778 43.9785,-35.68621 2.0284,-1.73618 4.521,-1.54192 21.7603,1.69594 l 19.4694,3.65674 -16.427,10.68208 c -29.7274,19.33109 -96.3684,61.91338 -99.33922,63.47584 -4.25595,2.23835 -7.69236,1.88013 -10.37236,-1.08124 z m -162.2268,-27.73126 c -6.33709,-7.07462 -47.07071,-57.55258 -47.55946,-58.93667 -0.33746,-0.95569 6.15191,-1.85609 22.951,-3.18443 3.41859,-0.27032 39.45331,54.77289 39.45331,60.26512 0,8.42171 -8.06085,9.42952 -14.84485,1.85598 z m 136.84016,1.8575 c -1.48754,-2.27027 -1.7259,-4.04832 -0.85114,-6.34912 0.8663,-2.27855 34.87773,-56.11551 36.66451,-58.03654 0.32348,-0.34778 25.49275,2.54107 26.01205,2.98559 0.6302,0.5394 -45.76949,57.60122 -50.05204,61.55343 -4.25351,3.92543 -9.14259,3.86175 -11.77338,-0.15336 z M 377.35637,211.43699 c -1.46346,-1.76337 -21.51551,-51.7486 -20.96694,-52.26587 0.13139,-0.12391 4.97917,-0.42004 10.77284,-0.65808 l 10.53394,-0.43279 5.73559,21.30806 c 5.97571,22.20014 6.96036,29.67756 4.2632,32.37472 -2.20519,2.20519 -8.40003,2.00983 -10.33863,-0.32604 z m 70.5548,-0.1348 c -0.94069,-1.13346 -1.61144,-3.98346 -1.49055,-6.33333 0.36619,-7.11801 11.74265,-46.94976 13.36835,-46.80583 0.82831,0.0733 5.40602,0.22333 10.17269,0.33333 5.93992,0.13708 8.66557,0.72438 8.66316,1.86667 -0.005,2.43944 -18.30099,48.95705 -20.115,51.1428 -2.06272,2.48543 -8.46908,2.36234 -10.59865,-0.20364 z m -35.27127,-5.92638 c -1.90226,-2.10197 -2.62542,-6.19195 -3.47732,-19.66667 -0.59158,-9.35703 -1.10379,-19.56278 -1.13825,-22.67944 l -0.0627,-5.66667 h 10.09594 10.09595 l -0.72117,7 c -0.39664,3.85 -1.08731,13.9 -1.53482,22.33333 -0.88536,16.6846 -2.57633,21.33334 -7.75998,21.33334 -1.70277,0 -4.17673,-1.19425 -5.49768,-2.65389 z m 3339.3216,892.51839 c -14.267,-1.7395 -30.6998,-5.0063 -40.0645,-7.9646 -78.3276,-24.7437 -126.7009,-98.2265 -126.5761,-192.27903 0.094,-70.8409 26.6351,-129.592 74.814,-165.6075 62.0847,-46.4105 152.7917,-47.6903 214.8181,-3.0309 13.7321,9.8871 34.5312,31.5488 44.0979,45.9266 31.1007,46.7416 42.4676,111.494 30.1892,171.9767 -15.7772,77.71843 -69.0594,133.51913 -141.2312,147.90683 -12.2997,2.452 -45.9883,4.2985 -56.0474,3.0719 z m 46,-32.5499 c 39.1566,-9.9721 70.0281,-41.9902 84.8308,-87.98123 18.428,-57.2552 14.1823,-136.9963 -9.8323,-184.6667 -16.2496,-32.2564 -42.4596,-54.2114 -74.9985,-62.8229 -14.4545,-3.8255 -45.7545,-3.5315 -59.9245,0.5627 -37.8397,10.9333 -65.5943,40.0525 -81.2449,85.2396 -13.1082,37.8463 -15.9986,89.9838 -7.4456,134.3045 11.5555,59.87903 44.0566,101.43233 89.7181,114.70653 17.1998,5.0001 40.81,5.2637 58.8969,0.6575 z m -1249.9999,28.6712 c -43.7815,-6.0125 -78.2072,-23.6426 -108.9414,-55.7911 -25.3376,-26.5037 -42.121,-59.57043 -50.024,-98.55773 -2.6481,-13.0635 -3.0282,-18.8763 -2.9845,-45.637 0.055,-33.9152 1.8108,-46.0887 10.1897,-70.6666 25.4695,-74.7098 91.203,-120.7865 177.2287,-124.2306 33.6845,-1.3486 61.4499,2.3128 103.5315,13.6526 l 19,5.12 v 43.729 43.729 h -15.813 -15.8129 l -4.1864,-25.6614 c -5.7676,-35.3537 -6.523,-36.2547 -38.4216,-45.8215 -9.7757,-2.9319 -15.2246,-3.6403 -32.21,-4.1881 -22.6924,-0.7317 -34.6299,0.6498 -51.5561,5.9669 -49.0315,15.4023 -80.4428,55.6301 -91.4928,117.1729 -2.2853,12.7279 -2.8484,21.1368 -2.8484,42.5312 0,30.8312 2.6177,49.1936 10.2753,72.078 8.5282,25.48623 18.9837,43.05983 35.2979,59.32843 34.7977,34.7006 87.6258,47.7111 142.7855,35.1653 7.7132,-1.7543 10.8247,-3.2327 14.8634,-7.0619 5.0989,-4.8346 5.1198,-4.8985 11.7802,-35.9608 3.6697,-17.1147 6.6722,-31.3647 6.6722,-31.6667 0,-0.3019 6.9,-0.549 15.3333,-0.549 h 15.3334 v 45.1779 45.1779 l -3,0.6519 c -1.65,0.3585 -9.3248,2.5163 -17.0551,4.795 -41.0711,12.107 -90.9509,16.5967 -127.9449,11.5164 z m -313.0792,-3.2745 c -13.315,-3.5946 -21.8595,-8.5418 -30.0705,-17.4107 -11.8382,-12.7866 -19.1419,-29.3665 -29.9738,-68.0421 -11.11,-39.66853 -17.8512,-54.73663 -29.9512,-66.94803 -3.8089,-3.844 -10.0306,-8.6495 -13.8259,-10.6789 -14.6251,-7.8202 -39.0931,-11.3681 -66.5621,-9.6518 l -15.204,0.95 v 68.43803 68.4381 l 4.7918,3.9498 c 4.2067,3.4675 6.2011,4.0584 16.3333,4.8395 6.3479,0.4894 13.4916,1.2224 15.8749,1.629 l 4.3334,0.7393 v 11.1849 11.185 h -67.3334 -67.3333 v -11.2162 -11.2161 l 5,-0.7408 c 2.75,-0.4075 9.8,-1.1386 15.6667,-1.6247 9.0536,-0.7502 11.4227,-1.4793 15.6666,-4.8217 l 5,-3.9379 V 897.40927 739.01287 l -4.9391,-3.7673 c -4.4512,-3.3951 -6.4931,-3.8942 -20.6667,-5.0522 l -15.7275,-1.285 v -11.8661 -11.8661 l 87.6667,0.532 c 94.732,0.5748 99.3615,0.8815 124.7177,8.2621 30.843,8.9775 53.3236,27.2276 62.9266,51.0845 10.245,25.4517 9.2513,62.0112 -2.3173,85.256 -11.053,22.209 -36.0357,39.7335 -71.2157,49.9555 -5.43,1.5778 -9.4014,3.2962 -8.8254,3.8188 0.5761,0.5226 4.3474,2.0042 8.3807,3.2925 12.2345,3.9077 26.3187,11.4831 33.8812,18.2234 14.6515,13.0587 22.7707,30.2555 30.9563,65.56653 5.3026,22.8746 11.3154,41.8868 15.4409,48.8233 10.944,18.401 26.3145,25.5952 58.7741,27.5095 l 15.7192,0.9271 -0.3858,10.1345 -0.3859,10.1345 -8,1.7747 c -4.4,0.976 -19.4,2.0281 -33.3333,2.3378 -22.1826,0.4931 -26.5454,0.236 -35.0792,-2.0679 z M 2103.3582,891.90107 c 42.0195,-4.229 63.9418,-19.0502 74.7524,-50.538 2.07,-6.0294 2.5177,-11.2452 2.5177,-29.3334 0,-23.0672 -0.9991,-28.5333 -7.6769,-42 -13.0912,-26.4002 -43.3488,-37.974 -99.3231,-37.9921 l -24.3334,-0.01 v 79.9391 79.939 l 9,0.4665 c 20.013,1.0372 31.2253,0.9194 45.0633,-0.4733 z m -988.7299,186.36183 v -11.2637 l 5.6667,-0.7608 c 3.1166,-0.4185 10.4666,-1.165 16.3333,-1.6589 9.0403,-0.7611 11.429,-1.4985 15.6667,-4.8359 l 5,-3.9379 V 897.40927 739.01287 l -4.9035,-3.7401 c -4.3968,-3.3536 -6.5668,-3.8866 -21,-5.1582 l -16.0965,-1.4182 -0.3853,-11.6667 -0.3852,-11.6667 79.0519,10e-4 c 43.4785,7e-4 85.6519,0.6097 93.7186,1.3534 58.826,5.4236 91.2563,26.2749 101.5806,65.3122 2.8189,10.6584 3.1226,36.1176 0.5567,46.6667 -4.6453,19.0984 -17.4166,36.124 -35.5974,47.4555 -8.2269,5.1277 -29.6341,14.8405 -40.9201,18.5662 -2.0601,0.6801 0.2724,1.3151 7.7135,2.1 52.553,5.5433 82.0778,26.2655 91.9631,64.5449 3.0606,11.8516 4.0054,31.7544 2.1196,44.65103 -7.0914,48.4988 -40.5829,77.8941 -102.7494,90.1827 -9.7735,1.932 -24.1332,2.3153 -104.3333,2.7852 l -93,0.5448 z m 166,-16.9172 c 43.6179,-6.0652 67.6455,-23.3157 76.1193,-54.6493 3.1773,-11.749 3.2359,-37.46263 0.1121,-49.18283 -10.6413,-39.9241 -44.9844,-55.9145 -112.0106,-52.1531 -12.5881,0.7064 -26.0375,1.6651 -29.8875,2.1304 l -7,0.8461 v 76.4434 76.44333 l 7,0.4897 c 15.4791,1.0829 56.9031,0.8509 65.6667,-0.3677 z m -6.6667,-185.23973 c 31.7232,-7.2782 50.8487,-23.5807 58.8144,-50.1332 3.4791,-11.5972 3.2331,-36.9903 -0.4676,-48.2739 -7.2025,-21.9608 -23.2832,-36.0502 -49.4887,-43.3606 -8.9742,-2.5035 -13.7744,-2.8509 -40.1914,-2.9091 -16.5,-0.036 -31.05,0.365 -32.3333,0.892 -2.1819,0.896 -2.3334,5.6638 -2.3334,73.4445 0,39.8674 0.45,72.9553 1,73.5285 0.55,0.5733 12.7,0.7099 27,0.3037 19.3771,-0.5506 29.0568,-1.44 38,-3.4919 z m 216.6667,201.94913 c 0,-10.6348 0.1785,-11.3487 3,-11.9929 1.65,-0.3768 9.2398,-2.039 16.8662,-3.6939 l 13.8661,-3.0087 6.6135,-17.9983 c 3.6374,-9.899 25.6792,-68.99823 48.9818,-131.33163 23.3025,-62.3333 50.3316,-134.7833 60.0647,-161 l 17.6965,-47.6667 h 19.0057 19.0057 l 3.6367,9.6667 c 2.0002,5.3167 19.9858,52.2667 39.9679,104.3334 19.9821,52.0666 47.1804,123.1666 60.4406,158 13.2602,34.83333 26.0973,68.43333 28.5268,74.66663 l 4.4174,11.3334 16.6219,3.4018 16.6218,3.4018 0.3852,11.5982 0.3853,11.5982 h -64.7186 -64.7186 v -11.182 -11.1819 l 5.6667,-0.7702 c 3.1167,-0.4236 11.1396,-1.1631 17.8287,-1.6433 12.1486,-0.8722 12.1643,-0.878 14.2746,-5.3034 l 2.1127,-4.4302 -20.608,-54.2459 c -11.3344,-29.83523 -20.608,-54.47583 -20.608,-54.75673 0,-0.281 -30.45,-0.3554 -67.6667,-0.1653 l -67.6666,0.3455 -20.3615,54.46383 -20.3614,54.4638 2.706,4.3785 c 2.6828,4.3408 2.8179,4.3861 15.6948,5.2625 7.1438,0.4862 15.5387,1.2253 18.6554,1.6424 l 5.6667,0.7585 v 11.1819 11.182 h -56 -56 z m 234.6666,-159.20463 c 0,-1.2405 -22.6444,-63.2784 -44.7243,-122.5294 -7.1821,-19.2731 -13.4667,-34.5731 -13.9657,-34 -0.9975,1.1455 -55.9965,155.0964 -55.9842,156.7086 0,0.55 25.8076,1 57.3409,1 32.3371,0 57.3333,-0.5141 57.3333,-1.1792 z m 1094.6667,159.30233 v -11.222 l 5,-0.729 c 2.75,-0.401 9.9185,-1.1134 15.9301,-1.5831 9.4887,-0.7415 11.6427,-1.4018 16.3333,-5.0069 l 5.4032,-4.1527 V 897.99377 740.52857 l -3.6666,-3.4198 c -5.7649,-5.3769 -8.0396,-6.0473 -24,-7.0731 l -15,-0.9641 v -11.8543 -11.8543 h 136.6666 136.6667 v 41.3334 41.3333 h -14.6667 c -8.0666,0 -15.1166,0.057 -15.6666,0.1278 -0.55,0.07 -2.8,-10.6955 -5,-23.9238 -3.6879,-22.1745 -4.3056,-24.3696 -7.9162,-28.1277 l -3.9161,-4.0763 h -66.4287 -66.4287 l 0.3449,72.3334 0.3448,72.3333 46.334,0.3506 46.3341,0.3506 4.6222,-4.3506 c 4.5497,-4.2824 4.6626,-4.6575 7.1999,-23.9298 1.4177,-10.7686 2.9728,-20.2186 3.4557,-21 0.5211,-0.8432 5.9959,-1.4208 13.4661,-1.4208 h 12.588 v 62.6667 62.6666 h -13.273 -13.2729 l -0.7231,-4.3333 c -0.3978,-2.3833 -1.67,-11.5333 -2.8272,-20.3333 -1.9397,-14.7504 -2.429,-16.3385 -6.2655,-20.3334 l -4.1614,-4.3333 h -47.0718 -47.0718 v 80.6667 80.66663 h 76.3961 76.396 l 4.7455,-5 c 4.6856,-4.9369 4.8004,-5.3361 9.0941,-31.6329 2.3917,-14.6481 4.6422,-27.3981 5.0011,-28.3333 0.4737,-1.2345 4.6369,-1.7004 15.194,-1.7004 h 14.5415 l -0.3508,45.6666 -0.3508,45.6667 -147,0.3392 -147,0.3392 z m 412,0 v -11.2082 l 6.3333,-0.757 c 3.4833,-0.4163 11.722,-1.1552 18.3081,-1.6418 10.791,-0.7973 12.4691,-1.295 16.9759,-5.0348 l 5.0013,-4.1499 0.024,-157.40523 0.024,-157.4051 -4.6083,-4.4665 c -4.5976,-4.4562 -4.6521,-4.4698 -23.3333,-5.8474 l -18.725,-1.3809 v -11.7475 -11.7475 h 69.3333 69.3333 v 11.7727 11.7727 l -16.0091,1.308 c -15.6496,1.2786 -16.1138,1.4094 -20.6667,5.8222 l -4.6575,4.5142 v 161.7385 161.73843 h 64.5546 64.5546 l 4.0078,-5.0602 c 3.8036,-4.8024 4.2507,-6.7479 8.7787,-38.1992 2.624,-18.2265 4.771,-33.6494 4.771,-34.2732 0,-0.6237 6.6,-1.134 14.6666,-1.134 h 14.6667 v 52 52 h -136.6667 -136.6666 z m 830.6666,0.02 c 0,-13.0322 -1.8135,-11.7413 20,-14.2359 13.7052,-1.5673 14.1193,-1.7154 19.6667,-7.0325 l 5.6666,-5.4314 -0.028,-156.05573 -0.029,-156.0557 -5.5848,-3.9544 c -5.2021,-3.6834 -6.7989,-4.0402 -23.3049,-5.208 l -17.72,-1.2537 v -11.792 -11.792 h 53.2149 53.2149 l 0.4635,7.6667 0.4636,7.6667 96.9469,145.6667 c 53.3208,80.1166 97.2655,145.66663 97.6548,145.66663 0.3894,0 0.708,-60.32323 0.708,-134.05163 v -134.0501 l -5,-5.2922 -5,-5.2922 -17.3333,-2.3246 -17.3333,-2.3246 v -11.3316 -11.3316 l 59.6666,-0.347 59.6667,-0.3471 v 11.7606 11.7606 l -16.8864,2.1971 c -16.52,2.1495 -16.9975,2.3055 -22,7.1904 l -5.1136,4.9933 v 173.0627 173.06283 h -19.0285 -19.0285 l -108.6381,-162.15733 -108.6381,-162.1573 -0.3394,143.1007 -0.3394,143.10063 5.3747,5.4764 c 5.317,5.4177 5.5281,5.4944 19.6727,7.1513 20.6526,2.4193 18.9647,1.1517 18.9647,14.2421 v 11.2435 h -60 -60 z m 461.6147,-0.4191 0.3853,-11.6079 15.3333,-3.063 c 8.5124,-1.7004 15.9602,-3.9074 16.7424,-4.9613 0.775,-1.0441 7.5835,-18.5922 15.13,-38.9958 7.5466,-20.4036 35.0036,-94.09753 61.0157,-163.76413 26.012,-69.6667 49.5283,-132.6667 52.2583,-140.0001 l 4.9637,-13.3333 h 19.2386 19.2386 l 16.4691,43.3334 c 9.058,23.8333 33.187,86.8333 53.62,140 20.4331,53.1666 43.7198,114.06663 51.7482,135.33333 l 14.5973,38.6667 14.489,2.9925 c 7.969,1.6459 15.8391,3.3073 17.4891,3.6921 2.8203,0.6576 3,1.3769 3,12.0074 v 11.308 h -64.6667 -64.6666 v -11.2162 -11.2161 l 5,-0.7291 c 2.75,-0.401 10.5916,-1.1207 17.4259,-1.5994 12.38,-0.8671 12.4335,-0.8863 14.4864,-5.1913 2.0401,-4.2781 1.8877,-4.7768 -15.3294,-50.1845 -9.5645,-25.22493 -18.844,-49.76343 -20.621,-54.53013 l -3.231,-8.6667 h -67.7451 -67.7451 l -20.3825,54.63423 -20.3825,54.6341 3.2058,4.2031 c 3.1066,4.073 3.61,4.2302 16.2622,5.078 7.1809,0.4812 15.3063,1.2072 18.0563,1.6133 l 5,0.7384 v 11.2161 11.2162 h -55.3853 -55.3852 z m 234.3853,-158.21323 c 0,-1.3346 -57.0772,-153.958 -58.5818,-156.6465 -0.7247,-1.2951 -1.9014,0.5685 -3.7624,5.9582 -4.2572,12.3303 -51.9323,146.2399 -52.9915,148.8427 -0.8958,2.2011 2.3462,2.3333 57.193,2.3333 31.9785,0 58.1427,-0.2194 58.1427,-0.4877 z M 1261.295,571.40117 c -17.4148,-2.9405 -30.8764,-7.2446 -46.5829,-14.8941 -13.4724,-6.5614 -16.5985,-8.7758 -26.8247,-19.0021 -13.4546,-13.4546 -20.6988,-26.5461 -25.164,-45.4753 -4.8382,-20.511 -5.4262,-37.2056 -5.4273,-154.1102 V 224.47601 l -5.2552,-4.22316 c -3.5099,-2.82065 -6.7202,-4.227 -9.6667,-4.23474 -2.4263,-0.006 -7.5615,-0.38995 -11.4115,-0.85239 l -7,-0.8408 v -11.82708 -11.82709 l 64.3334,0.34614 64.3333,0.34614 0.388,10.25714 c 0.3308,8.74388 0.036,10.44271 -2,11.51496 -1.3134,0.6918 -9.2651,1.69997 -17.6705,2.24037 -14.3365,0.92174 -15.5951,1.23382 -20.3333,5.04153 l -5.0509,4.05898 v 107.16266 c 0,65.112 0.5449,112.2434 1.3887,120.1102 5.1983,48.4668 25.4238,74.7861 64.9756,84.5518 16.8464,4.1596 50.5227,4.1346 67.4822,-0.05 18.3471,-4.527 27.9053,-9.7067 39.5403,-21.427 11.693,-11.779 16.9323,-21.4258 22.3212,-41.099 l 3.5687,-13.0283 0.4161,-116.0095 0.4161,-116.00957 -5.3599,-5.23385 c -5.283,-5.15866 -5.595,-5.2642 -21.7211,-7.34616 l -16.3612,-2.11231 -0.3855,-11.65912 -0.3854,-11.65911 55.0521,0.34816 55.0521,0.34817 0.3932,10.54019 c 0.2162,5.79711 -0.204,11.13729 -0.9338,11.86707 -0.7297,0.72978 -6.8221,2.08243 -13.5386,3.0059 -10.8943,1.49791 -12.6995,2.15178 -16.7329,6.06116 l -4.5212,4.38213 v 108.21144 c 0,111.5674 -0.7488,133.1102 -5.3733,154.5988 -3.1667,14.7141 -12.0946,33.2909 -20.6738,43.017 -16.8255,19.075 -49.1124,34.0527 -83.8086,38.8785 -13.7454,1.9118 -54.9463,1.5918 -67.4776,-0.5241 z m 1925.5141,-56.857 c -10.6963,-1.2413 -36.0193,-7.0575 -41.7783,-9.5956 l -3.5975,-1.5856 -0.4025,-35.3333 -0.4026,-35.3333 14.7614,-0.3748 14.7613,-0.3748 2.9225,24.3616 c 2.576,21.4735 3.2859,24.7251 5.9884,27.4276 7.0825,7.0825 48.9398,10.9169 68.592,6.2835 27.2848,-6.433 40.9507,-26.3701 34.805,-50.7769 -1.9871,-7.8914 -11.1124,-17.937 -21.6278,-23.8089 -4.5115,-2.5193 -20.9906,-9.6949 -36.6202,-15.9458 -36.0462,-14.4163 -50.1779,-21.8502 -61.5603,-32.3834 -11.0241,-10.2016 -15.6428,-19.517 -16.869,-34.0223 -1.8439,-21.813 4.6928,-39.8005 20.057,-55.19271 19.4718,-19.50724 50.3547,-28.71975 89.4564,-26.68525 20.4206,1.0625 41.2214,4.70373 59,10.32809 l 4.3333,1.37087 v 31.8966 31.8966 h -13.2435 c -11.473,0 -13.3315,-0.312 -13.9022,-2.3333 -0.3623,-1.2834 -1.9663,-10.4334 -3.5644,-20.3334 -2.1268,-13.1759 -3.6105,-18.7676 -5.5359,-20.86422 -6.1303,-6.67529 -38.105,-10.53724 -54.7824,-6.61669 -23.7987,5.59465 -35.5976,18.57421 -35.6252,39.19041 -0.01,5.3402 0.8203,11.7038 1.8387,14.1414 4.862,11.6362 22.7311,22.2388 62.1483,36.8753 28.6103,10.6237 41.576,17.0357 52.2479,25.8384 22.4623,18.5279 28.2615,47.8821 14.8798,75.318 -11.7873,24.1669 -38.8716,40.3258 -77.2995,46.1179 -14.1356,2.1306 -42.8912,2.3812 -58.9807,0.514 z m -188.1205,-1.3043 c -9.4103,-1.8447 -19.501,-7.5001 -25.4879,-14.2851 -7.442,-8.4339 -13.0473,-19.9576 -21.2551,-43.6977 -11.6805,-33.7841 -18.5938,-45.1066 -31.1431,-51.0055 -9.1809,-4.3155 -42.2427,-7.4919 -49.3985,-4.7459 -1.8639,0.7152 -2.1091,5.891 -2.1091,44.5133 v 43.704 l 3.0343,1.9881 c 1.7504,1.147 8.238,2.4 15.3333,2.9616 l 12.2991,0.9734 v 9.1918 9.1918 h -52.6667 -52.6667 v -9.1918 -9.1918 l 12.2991,-0.9734 c 7.0953,-0.5616 13.5829,-1.8146 15.3333,-2.9616 l 3.0343,-1.9881 V 383.90707 280.09118 l -3,-1.96098 c -1.7296,-1.13054 -8.2229,-2.35385 -15.3333,-2.88871 l -12.3334,-0.92773 v -9.14203 -9.14203 l 64.3334,0.008 c 50.2926,0.006 67.2433,0.44379 77.6666,2.00524 33.8351,5.06861 54.0412,16.90931 64.3122,37.68673 l 5.0212,10.1574 v 17.4284 c 0,16.9868 -0.1104,17.6527 -4.357,26.2829 -7.711,15.671 -23.085,27.4124 -44.9764,34.3493 -5.1333,1.6266 -10.2333,3.2638 -11.3333,3.6382 -1.1,0.3744 2.9709,2.4908 9.0464,4.7029 21.14,7.6975 30.138,19.6898 40.4237,53.8754 6.5202,21.6707 8.256,26.0181 13.336,33.4017 6.58,9.5636 22.3481,14.9474 44.1939,15.0894 l 6.3333,0.041 v 7.9746 c 0,9.0006 1.0305,8.251 -14.6666,10.6698 -10.34,1.5933 -36.9325,1.5341 -45.273,-0.1008 z m -83.7742,-136.4707 c 30.5677,-5.4506 44.5415,-23.8041 41.9015,-55.0346 -1.4788,-17.4951 -8.4102,-28.9206 -21.9099,-36.1159 -11.2203,-5.98039 -22.0952,-8.17802 -45.2778,-9.14988 l -20.3333,-0.85241 v 51.53999 51.54 l 17.6667,-0.046 c 9.7166,-0.026 22.2954,-0.8719 27.9528,-1.8807 z m -677.523,115.6296 c -22.2969,-55.3552 -88.4186,-213.07744 -89.6462,-213.83612 -0.7635,-0.47188 -6.7272,-1.58757 -13.2526,-2.47931 l -11.8643,-1.62135 v -9.21614 -9.21615 h 52.0609 52.0609 l -0.3943,9 -0.3942,9 -12,1.12957 c -12.1011,1.13908 -15.3333,2.33985 -15.3333,5.69636 0,1.00801 6.6562,17.88454 14.7915,37.50344 29.5859,71.348 60.3422,145.017 60.7702,145.5595 0.241,0.3055 0.7781,0.2157 1.1934,-0.1996 0.4154,-0.4154 17.2004,-41.6828 37.3,-91.7055 27.6083,-68.7096 36.2412,-91.51777 35.3029,-93.27101 -1.2482,-2.33218 -10.943,-4.04609 -22.887,-4.04609 h -5.1377 v -9.33333 -9.33334 h 41.3333 41.3334 v 9.10264 9.10265 l -11,1.63383 c -6.05,0.8986 -11.9795,1.92045 -13.1766,2.27077 -2.1853,0.63952 -20.762,45.22038 -73.015,175.22338 l -23.8482,59.3334 -17.862,0.3691 -17.8619,0.3691 z m -670.7631,10.5039 v -9.127 l 13.6666,-1.6438 c 10.5151,-1.2647 14.3585,-2.2883 16.6667,-4.4387 l 3,-2.795 V 382.61727 280.3364 l -3.1768,-2.08152 c -2.0244,-1.32647 -8.0701,-2.41855 -16.6667,-3.01062 l -13.4898,-0.9291 v -9.14273 -9.14273 h 40.6666 40.6667 v 5.68205 c 0,6.11169 1.2324,7.86558 102.338,145.64882 l 30.3287,41.331 0.3436,-82.6237 0.3436,-82.6237 -3.0162,-3.01617 c -2.4517,-2.45171 -5.5728,-3.31616 -16.6769,-4.61897 l -13.6608,-1.60277 v -9.08828 -9.08828 h 45.3333 45.3334 v 9.1456 9.14559 l -12.8486,1.45951 c -10.1572,1.1538 -13.5086,2.07964 -16,4.42016 l -3.1514,2.96065 v 101.28096 101.281 l 8.4622,11.4866 c 4.6543,6.3176 8.8897,12.2366 9.412,13.1532 0.7453,1.3079 -4.3061,1.6581 -23.4622,1.6269 l -24.412,-0.04 -9.4562,-12.9602 c -14.6402,-20.0652 -92.0477,-125.4147 -117.2703,-159.6018 l -22.6069,-30.6415 -0.3428,88.4201 -0.3429,88.4201 3.0095,2.4471 c 2.9333,2.3851 5.499,2.9577 21.3429,4.7629 l 7.6667,0.8735 v 9.1797 9.1797 h -46 -46 z m 373.3333,-0.062 v -9.1895 l 13.6667,-0.9358 c 8.022,-0.5493 14.9057,-1.7228 16.6666,-2.8413 l 3,-1.9054 v -103.7626 c 0,-97.1322 -0.1491,-103.89682 -2.3333,-105.86358 -1.6444,-1.48063 -6.5656,-2.38278 -16.6667,-3.05527 l -14.3333,-0.95427 v -9.15137 -9.15138 h 55.3333 55.3334 v 9.33334 9.33333 l -5,0.009 c -12.4309,0.0236 -22.9697,1.76403 -25.6173,4.23065 -2.687,2.50334 -2.7161,3.62638 -2.7161,104.93845 0,120.2504 -2.4237,106.7205 19.4943,108.8214 7.6508,0.7333 13.8944,1.7833 13.8748,2.3333 -0.02,0.55 -0.036,4.6 -0.036,9 v 8 h -55.3334 -55.3333 z m 534.6667,0 v -9.1918 l 12.3333,-0.9458 c 9.7586,-0.7483 12.9596,-1.5222 15.3333,-3.7073 l 3,-2.7615 V 383.28397 280.3364 l -3.1977,-2.0952 c -1.9458,-1.27496 -7.9486,-2.45385 -15.3333,-3.01132 l -12.1356,-0.91612 v -9.14203 -9.14203 h 101.9999 102 v 29.33337 29.3333 h -13.2434 c -11.4652,0 -13.3347,-0.3133 -13.9229,-2.3333 -0.3737,-1.2834 -1.9802,-8.9931 -3.5702,-17.1327 -2.6101,-13.36261 -3.2525,-15.01303 -6.6162,-17.00003 -3.2603,-1.92592 -9.234,-2.20064 -47.853,-2.20064 h -44.1276 v 46.66667 46.6666 l 31,-0.03 c 38.5041,-0.037 36.2531,1.0531 39.2957,-19.0259 l 2.1636,-14.2778 h 12.437 12.437 v 42.6667 42.6667 h -12.5045 -12.5046 l -1.4954,-10.0545 c -0.8225,-5.5299 -1.4955,-11.2572 -1.4955,-12.7273 0,-1.47 -1.4727,-4.1455 -3.2727,-5.9455 l -3.2727,-3.2727 h -31.3939 -31.394 v 51.3333 51.3334 l 51.6667,-0.01 c 47.9626,0 51.9573,-0.1823 55.7211,-2.4775 3.9304,-2.3968 4.1713,-3.1315 7.8707,-23.995 l 3.8162,-21.5226 h 12.4187 12.4188 l 0.3772,34.001 0.3773,34.001 -109.6667,-10e-4 -109.6666,-10e-4 z m 963.9999,0 v -9.1895 l 13.6324,-0.9757 c 8.3235,-0.5958 14.8141,-1.75 16.6667,-2.9639 l 3.0343,-1.9881 V 383.90707 280.09118 l -3,-1.95455 c -1.8193,-1.18528 -8.379,-2.32195 -16.6667,-2.88801 l -13.6667,-0.93346 v -9.14273 -9.14273 h 55.3334 55.3333 v 9.15138 9.15137 l -14.3334,0.95427 c -10.101,0.67249 -15.0223,1.57464 -16.6666,3.05527 -2.1843,1.96676 -2.3334,8.73138 -2.3334,105.86358 v 103.7626 l 3,1.9055 c 1.761,1.1184 8.6447,2.2919 16.6667,2.8412 l 13.6667,0.9358 v 9.1895 9.1895 h -55.3333 -55.3334 z m 261.6058,0.1895 0.3942,-9 14.8159,-1.3506 c 8.6469,-0.7882 15.7252,-2.1053 17,-3.1632 1.9897,-1.6514 2.1841,-11.2329 2.1841,-107.6495 V 276.0297 l -29,0.0444 c -25.602,0.0392 -29.3263,0.31717 -31.7845,2.37259 -2.1855,1.82735 -3.5776,6.55068 -6.471,21.95568 l -3.6864,19.6274 h -13.1957 -13.1957 v -32 -32.00003 h 120 120 v 32.00003 32 h -13.7268 -13.7268 l -3.2357,-19.4693 c -4.3705,-26.29764 -1.5741,-24.53073 -38.8239,-24.53073 h -29.1535 v 105.84653 105.8467 l 3.0624,2.0066 c 1.9281,1.2633 8.3485,2.3669 17.3334,2.9793 l 14.2709,0.9727 v 9.174 9.1741 h -56.7276 -56.7276 z m 219.7275,-0.1198 v -9.1198 l 9.6667,-1.6085 c 5.3167,-0.8848 10.9395,-1.8729 12.4951,-2.1959 2.0783,-0.4316 3.9589,-3.3327 7.0907,-10.9384 2.3442,-5.693 13.8858,-34.0509 25.6479,-63.0176 26.8957,-66.2361 64.8695,-158.41198 66.5709,-161.59095 1.136,-2.12266 3.2384,-2.40903 17.6862,-2.40903 h 16.3969 l 24.1124,56.99998 c 13.2618,31.35 35.6653,84.725 49.7855,118.6111 23.4822,56.3535 25.9663,61.6699 29.1104,62.3006 1.8905,0.3792 7.4873,1.3658 12.4373,2.1924 l 9,1.503 v 9.1964 9.1965 h -50.6666 -50.6667 v -9.1895 -9.1895 l 13.3442,-0.9551 c 12.2111,-0.874 13.4062,-1.2022 14.0744,-3.8644 0.4807,-1.9152 -4.3685,-15.0773 -14.1922,-38.522 l -14.9224,-35.6128 h -48.3401 -48.34 l -6.8037,16.5474 c -12.3339,29.9976 -21.4869,53.8111 -21.4869,55.9028 0,3.2845 2.5149,4.1332 16.445,5.5498 l 13.1117,1.3333 0.2217,9.0008 0.2216,9.0008 -41,-8e-4 -41,-8e-4 z m 167.6684,-110.6709 c -1.2702,-4.8574 -37.6862,-92.144 -38.4559,-92.1763 -1.1365,-0.048 -39.5997,92.4388 -38.9403,93.6337 0.3035,0.55 17.9864,1 39.2954,1 36.9867,0 38.7143,-0.1115 38.1008,-2.4574 z m 210.9983,110.5857 v -9.2051 l 14.3333,-0.946 c 9.9174,-0.6545 15.0522,-1.5793 16.6667,-3.0016 2.1853,-1.9252 2.3333,-8.7654 2.3333,-107.849 V 276.0297 h -29.1009 c -35.6184,0 -33.1254,-1.51001 -37.4221,22.66667 -1.6292,9.1667 -3.2684,17.7167 -3.6427,19 -0.5892,2.0199 -2.4595,2.3333 -13.9241,2.3333 h -13.2435 v -32 -31.99997 h 120 120 v 31.99997 32 h -13.2435 c -11.4703,0 -13.3326,-0.3124 -13.9094,-2.3333 -0.3663,-1.2833 -1.9986,-10.1116 -3.6274,-19.6183 -2.335,-13.6284 -3.553,-17.7795 -5.7573,-19.62234 -2.4723,-2.06691 -6.1508,-2.34244 -31.7957,-2.38167 l -29,-0.0444 v 105.79331 c 0,99.0836 0.1479,105.9237 2.3333,107.849 1.6144,1.4223 6.7493,2.347 16.6667,3.0016 l 14.3333,0.946 v 9.205 9.2051 h -56 -56 z m 258.6665,2.8717 10e-5,-5.6667 h 6.4 c 3.52,0 7.12,-0.72 8,-1.6 1.1866,-1.1865 1.6,-14.2888 1.6,-50.6997 v -49.0996 l -3.4201,-1.3004 c -1.8811,-0.7152 -5.4811,-1.3003 -8,-1.3003 -4.4698,0 -4.5799,-0.1309 -4.5799,-5.4437 v -5.4438 l 43.6667,0.5762 c 47.5965,0.628 51.0023,1.086 67.9629,9.1394 22.9472,10.8961 35.8482,37.3901 31.2536,64.1837 -4.1026,23.9241 -18.0979,39.4546 -42.5527,47.2204 -12.381,3.9317 -21.171,4.5811 -65.9972,4.8756 l -34.3335,0.2255 z m 83.6362,-10.9343 c 13.9763,-6.0852 22.1644,-19.7603 23.8364,-39.8099 1.6747,-20.0801 -3.9093,-38.5235 -14.3758,-47.4825 -7.5366,-6.451 -15.5458,-8.9364 -31.43,-9.7533 l -13.6667,-0.7029 v 51.0127 51.0127 l 14.3334,-0.6212 c 10.9917,-0.4764 15.9581,-1.3287 21.3027,-3.6556 z m 116.7616,15.0469 c -0.3281,-0.8547 -0.4018,-3.2547 -0.1638,-5.3333 0.4058,-3.5433 0.8909,-3.821 7.7661,-4.446 l 7.3334,-0.6667 0.6666,-49.7966 c 0.3667,-27.3882 0.3391,-50.3255 -0.061,-50.9718 -0.4004,-0.6464 -4.0004,-1.643 -8,-2.2147 -7.2232,-1.0325 -7.2749,-1.073 -7.6859,-6.0282 l -0.4138,-4.9887 h 56.0805 56.0804 v 15.3943 15.3942 l -9,-0.3942 -9,-0.3943 -2.0634,-8.6666 -2.0634,-8.6667 -20.2699,-0.3681 -20.2699,-0.368 v 21.368 21.3681 h 12.588 c 6.9233,0 12.9499,-0.5857 13.3923,-1.3016 0.4425,-0.7158 1.1615,-4.3158 1.5978,-8 l 0.7933,-6.6984 h 8.481 8.4809 v 22.0636 22.0636 l -8.3216,-0.3969 -8.3217,-0.397 -0.8916,-6.2663 c -0.4903,-3.4464 -1.281,-6.8964 -1.757,-7.6666 -0.5057,-0.8183 -6.098,-1.4004 -13.4534,-1.4004 h -12.588 v 23.3641 23.3641 l 23.6666,-0.3641 23.6667,-0.3641 1.699,-7.3333 c 0.9345,-4.0334 1.9959,-8.6834 2.3588,-10.3334 0.6076,-2.7631 1.3978,-3 10.0074,-3 h 9.3478 l -0.3732,16.7229 -0.3731,16.7229 -59.1696,0.2771 c -44.0395,0.2063 -59.322,-0.1202 -59.7661,-1.2769 z M 2.9616745,116.52946 c -1.06241,-0.46022 -1.66667,-3.56333 -1.66667,-8.55894 0,-6.345 0.55552,-8.35449 2.91808,-10.55555 3.56276,-3.31922 10.7089605,-3.56775 13.7968805,-0.47984 3.07059,3.07059 1.81478,11.83819 -2.28204,15.93238 -3.12167,3.11966 -9.6772305,5.0001 -12.7662505,3.66195 z m 781.9169555,-0.92368 -5.0829,-1.42026 0.4163,-22.99384 0.4162,-22.993837 -4.6421,-0.86909 c -7.2983,-1.36636 -9.3579,-2.98315 -9.3579,-7.34597 0,-2.1742 0.45,-3.93991 1,-3.92381 1.8027,0.0528 36.4986,10.35814 37.1851,11.04471 0.3683,0.36831 0.4774,2.49058 0.2423,4.71617 l -0.4274,4.04652 -6.6666,-2.26884 -6.6667,-2.26883 0.4435,23.017157 c 0.2439,12.65944 -0.056,22.94135 -0.6667,22.84868 -0.6106,-0.0927 -3.3975,-0.80761 -6.1931,-1.58876 z m 36.382,-2.07191 c -7.7898,-7.78985 -6.2986,-17.79522 2.7673,-18.56625 6.6509,-0.56564 12.5397,5.65561 12.5397,13.24763 0,9.38632 -8.3411,12.28454 -15.307,5.31862 z M 47.961665,88.77985 V 61.613703 l 6.08534,-2.07349 6.08534,-2.07348 -0.41867,23.28319 c -0.23027,12.805757 -0.3626,23.282417 -0.29407,23.281477 0.0685,-9.4e-4 3.61246,-1.20171 7.8754,-2.66837 10.32233,-3.55141 11.33333,-3.43757 11.33333,1.27607 0,3.84292 -0.34603,4.04736 -13.66667,8.07472 -7.51666,2.27259 -14.41666,4.37952 -15.33333,4.68208 -1.2968,0.42802 -1.66667,-5.47863 -1.66667,-26.61605 z m 698.666565,15.81586 -15.3333,-4.15482 -0.3609,-26.872267 c -0.1985,-14.77974 0,-26.87226 0.4445,-26.87226 1.1842,0 21.9157,5.24431 26.6268,6.7356 3.3227,1.0518 3.9957,1.93238 3.775,4.93888 -0.1478,2.01237 -0.3175,3.77063 -0.3771,3.90724 -0.06,0.13661 -4.3007,-0.91339 -9.4247,-2.33333 -5.1241,-1.41995 -9.4741,-2.58114 -9.6667,-2.58042 -0.1926,7.2e-4 -0.3809,3.24312 -0.4183,7.20533 l -0.068,7.20404 4.7347,0.78297 c 2.6042,0.43063 6.9848,1.41644 9.7348,2.19067 4.5148,1.2711 5,1.84531 5,5.91758 v 4.50988 l -8.9957,-2.57255 c -4.9477,-1.41491 -9.2977,-2.57267 -9.6667,-2.57281 -0.369,-1.4e-4 -0.6221,3.40211 -0.5625,7.560547 l 0.1085,7.5608 9.5959,2.25491 c 5.2777,1.24021 9.9212,2.58028 10.3189,2.97794 0.3977,0.39766 0.5307,2.44289 0.2956,4.54496 l -0.4273,3.82194 z M 86.934068,77.087383 l 0.36094,-26.94232 5.66666,-1.6397 5.66667,-1.63971 v 27.03764 27.037637 l -5.15469,1.54438 c -2.83508,0.84941 -5.54751,1.54438 -6.02761,1.54438 -0.4801,0 -0.71049,-12.12404 -0.51197,-26.942307 z m 24.000002,-6.69262 0.36094,-26.96827 13.21469,-3.13178 c 13.09292,-3.10292 13.24649,-3.10814 16.66666,-0.56594 2.43061,1.80665 3.57659,4.0424 3.87313,7.55629 0.3675,4.35483 -0.26934,5.6473 -5,10.14747 -6.26946,5.964 -6.64322,6.95469 -2.20336,5.84035 4.67992,-1.17458 8.78221,3.39268 8.78221,9.77761 0,6.91546 -3.9713,13.690227 -9.79738,16.713697 -4.13792,2.14739 -21.97571,7.50362 -25.23023,7.57599 -0.56518,0.0126 -0.86518,-12.112867 -0.66666,-26.945417 z m 19.69427,12.39322 c 3.9222,-2.77136 5.13289,-9.49155 2.15518,-11.96283 -1.08954,-0.90424 -3.94946,-1.45313 -6.35538,-1.21977 l -4.3744,0.42431 -0.10154,8.33501 c -0.0948,7.778427 0.0802,8.283037 2.62063,7.556777 1.4972,-0.42802 4.22218,-1.838087 6.05551,-3.133497 z m 0.63716,-24.05902 c 2.90293,-3.20769 2.22081,-9.84698 -1.07595,-10.47261 -1.34134,-0.25455 -3.76035,-0.13112 -5.37557,0.27427 -2.5584,0.64212 -2.95028,1.67076 -3.04153,7.98376 l -0.10475,7.24667 3.68421,-1.28432 c 2.02631,-0.70638 4.68743,-2.39287 5.91359,-3.74777 z m 560.69613,32.170117 -8.6667,-2.20272 -0.3609,-26.999997 c -0.1985,-14.85 0.1015,-26.98972 0.6666,-26.97715 0.5652,0.0126 5.3073,1.13464 10.538,2.49351 21.2627,5.52373 28.4896,14.27986 28.4896,34.51766 0,19.949017 -7.9773,24.935397 -30.6666,19.168697 z m 15.2577,-9.832727 c 2.7683,-3.95225 2.8527,-22.33299 0.1268,-27.60427 -1.1745,-2.27133 -4.0987,-4.62876 -7.3603,-5.93379 -2.9763,-1.19089 -5.5494,-2.16571 -5.7179,-2.16626 -0.2184,-7e-4 0.088,35.11744 0.3348,38.33433 0.014,0.18333 2.3915,0.33333 5.2833,0.33333 3.9217,0 5.7851,-0.75301 7.3333,-2.96334 z M 155.96167,59.679483 v -27.30218 l 14.33333,-3.01664 c 7.88334,-1.65915 15.08334,-3.30155 16,-3.64979 1.13342,-0.43057 1.66667,0.83713 1.66667,3.96222 v 4.59536 l -10.17778,1.91927 -10.17777,1.91928 v 6.96134 c 0,7.47586 0.007,7.48127 7.02222,5.69922 2.56666,-0.65198 6.65893,-1.59167 9.09392,-2.08821 4.3668,-0.89047 4.42141,-0.84191 3.99999,3.55711 -0.42389,4.4249 -0.50571,4.47494 -10.42725,6.37672 l -10,1.91682 v 7.7339 c 0,6.23963 0.38643,7.62351 2,7.16254 2.21209,-0.63195 10.64812,-2.67473 16.33334,-3.95511 3.42532,-0.77142 3.66666,-0.53655 3.66666,3.56841 v 4.39418 l -15,3.17596 c -8.25,1.74678 -15.75,3.445017 -16.66666,3.773867 -1.29854,0.46585 -1.66667,-5.432527 -1.66667,-26.704267 z m 506.15306,24.52579 c -3.4162,-0.74796 -4.6455,-2.63338 -10.9806,-16.84224 -3.9236,-8.80001 -7.8206,-19.45001 -8.66,-23.66667 -1.0319,-5.18369 -2.1639,-7.66667 -3.4953,-7.66667 -1.3306,0 -1.6763,0.7567 -1.066,2.33333 0.4967,1.28334 1.2526,10.88334 1.6797,21.33334 l 0.7766,19 h -3.428 c -7.834,0 -7.6462,0.69514 -7.6462,-28.29405 v -26.6754 l 6.3333,0.94284 c 3.4834,0.51856 7.0218,1.50902 7.8631,2.20103 2.7584,2.26869 11.5828,24.27916 13.7945,34.40714 1.1929,5.46262 2.9678,10.18244 3.9526,10.5107 1.3833,0.46112 1.5958,-0.60239 0.9399,-4.70443 -1.6098,-10.067 -2.6059,-35.99026 -1.4087,-36.66145 0.6556,-0.36753 3.142,-0.13916 5.5253,0.50748 l 4.3333,1.17572 v 26.62854 c 0,29.394777 0.6416,27.475247 -8.5135,25.47079 z M 198.62834,50.467763 v -27.22861 l 9.35808,-1.60473 c 5.14694,-0.8826 12.30339,-1.60473 15.90322,-1.60473 5.48274,0 6.99371,0.57026 9.30859,3.51314 4.80863,6.11319 3.31706,15.45395 -3.37788,21.15353 l -3.13236,2.66666 6.83797,11.0211 c 3.76088,6.0616 6.58658,11.27248 6.27933,11.57973 -0.30725,0.30725 -3.54776,0.9518 -7.20113,1.43233 l -6.64249,0.87368 -5.03284,-10.20851 c -4.23088,-8.58183 -5.49954,-10.14131 -7.96166,-9.78676 -2.79759,0.40287 -2.91053,0.94449 -2.52069,12.08844 0.33321,9.52525 0.0508,11.66666 -1.53834,11.66666 -1.07056,0 -3.82147,0.375 -6.11314,0.83334 l -4.16666,0.83333 z m 21.50187,-6.52827 c 3.67551,-1.96707 5.28418,-8.47934 2.92618,-11.84585 -1.63855,-2.33936 -3.11015,-2.79283 -8.00038,-2.4653 l -5.99249,0.40135 -0.21759,8.41964 -0.21759,8.41964 4.64212,-0.87132 c 2.55316,-0.47923 5.64005,-1.4054 6.85975,-2.05816 z m 378.59112,28.28068 c -2.9196,-0.84107 -3.9215,-3.37072 -10.1241,-25.56196 -9.9827,-35.7157 -9.5388,-31.9298 -3.6402,-31.04491 2.7525,0.41292 5.6791,1.42553 6.5034,2.25025 2.1247,2.12553 7.2648,24.20785 8.2977,35.64694 1.0798,11.95935 3.5133,13.486 4.6206,2.89872 0.6787,-6.48868 4.7275,-25.9875 7.0501,-33.9526 0.5147,-1.76509 1.6999,-2.0815 5.5929,-1.49302 2.7169,0.4107 5.3137,1.11859 5.7707,1.57308 0.4569,0.45449 -2.588,11.92635 -6.7666,25.49302 -7.0375,22.8488 -7.8357,24.68352 -10.8308,24.8953 -1.7784,0.12574 -4.6916,-0.19143 -6.4737,-0.70482 z m -344.093,-23.43701 c 0,-10.5856 0.60358,-20.83406 1.34128,-22.77436 1.2951,-3.40636 1.20329,-3.50115 -2.66667,-2.75346 -13.23646,2.55734 -12.00794,2.80213 -12.00794,-2.39263 0,-5.34126 -1.80579,-4.67933 22.32456,-8.18317 18.38351,-2.66937 17.67544,-2.7707102 17.67544,2.52985 0,4.44452 -0.10627,4.52629 -7,5.38629 l -7,0.87325 0.44263,22.42152 0.44263,22.42152 -5.1093,0.84419 c -2.81011,0.4643 -5.85929,0.85079 -6.77596,0.85886 -1.25704,0.0111 -1.66667,-4.7157 -1.66667,-19.23186 z m 291.6666,15.66076 c -2.1237,-0.55499 -2.3333,-2.99612 -2.3333,-27.17866 v -26.56891 l 4.3333,0.11661 c 2.3834,0.0641 9.4333,0.82122 15.6667,1.68243 l 11.3333,1.56583 0.4317,4.50371 0.4317,4.50371 -5.4317,-0.85281 c -2.9874,-0.46904 -7.8997,-1.24036 -10.9161,-1.71404 -5.3667,-0.84275 -5.4499,-0.79684 -3.8779,2.1404 0.9014,1.68435 1.2526,4.88754 0.8002,7.29901 l -0.8062,4.29738 9.6842,1.22889 9.6841,1.22889 0.4302,4.49925 0.4302,4.49925 -6.4302,-0.89989 c -3.5366,-0.49493 -8.4434,-1.24822 -10.9039,-1.67398 -4.1936,-0.72562 -4.3815,-0.60164 -3,1.97965 0.8105,1.51456 1.4737,6.69319 1.4737,11.50806 v 8.75433 l -4.3333,-0.15467 c -2.3833,-0.0851 -5.3833,-0.42907 -6.6667,-0.76444 z m -266.26745,-4.74756 c 0.65131,-2.38334 3.88166,-14.46205 7.17856,-26.8416 3.2969,-12.37954 6.33631,-22.8502 6.75424,-23.2681302 0.85802,-0.85802 15.72972,-2.74489 16.4995,-2.0934 0.47692,0.40364 12.09588,49.5963902 12.14484,51.4192602 0.013,0.48555 -2.45053,1.30083 -5.47461,1.81174 -6.21367,1.0498 -7.78116,-0.25735 -7.81459,-6.51671 -0.0177,-3.30957 -0.42276,-3.71436 -3.02042,-3.01821 -1.65,0.44218 -5.55,0.81216 -8.66667,0.82218 -5.36795,0.0172 -5.66666,0.22331 -5.66666,3.90915 0,6.85928 -1.13564,8.10905 -7.36851,8.10905 h -5.74987 z m 27.5465,-16.23417 c 0.15344,-0.11697 -0.54154,-3.48714 -1.5444,-7.48926 -1.00286,-4.00211 -2.22158,-10.72657 -2.70826,-14.94324 -0.48668,-4.21667 -1.40493,-7.66667 -2.04056,-7.66667 -0.63564,0 -1.51663,2.85 -1.95777,6.33334 -0.44113,3.48333 -1.67946,10.23333 -2.75185,15 -1.07238,4.76666 -1.94821,9.04296 -1.94629,9.50288 0.003,0.67952 11.98565,-0.003 12.94913,-0.73705 z m 215.24819,17.46773 c -0.80631,-0.97154 -3.52596,-6.2867 -6.04368,-11.81146 -3.99902,-8.77526 -6.51487,-11.75489 -9.92588,-11.75563 -0.49002,-1.1e-4 -0.67784,5.13748 -0.41737,11.41685 l 0.47359,11.41705 -5.80692,-0.41685 -5.80692,-0.41685 -0.36149,-27.17463 -0.3615,-27.1746302 10.6876,0.9323 c 5.87818,0.51276 12.59569,1.47952 14.9278,2.14836 5.52302,1.58398 11.42623,7.3155102 12.48103,12.1180302 1.2525,5.70223 -1.6067,12.99099 -5.47704,13.96237 -3.64094,0.91382 -4.07634,3.23337 -1.42065,7.56844 0.99499,1.6242 3.98364,7.00309 6.64139,11.95309 l 4.8324,9 h -6.4782 c -3.75106,0 -7.09529,-0.74361 -7.94416,-1.76644 z m -4.19384,-31.5669 c 3.4401,-3.4401 3.36412,-5.70711 -0.33542,-10.00809 -1.96958,-2.28978 -4.83565,-3.73635 -8.33333,-4.20603 l -5.33125,-0.71589 0.26165,8.46501 c 0.14391,4.65575 0.29391,8.615 0.33334,8.79834 0.0394,0.18333 2.47167,0.33333 5.40501,0.33333 3.55555,0 6.22222,-0.88889 8,-2.66667 z m -181.73446,29.42795 c -6.96928,-1.41674 -8.04306,-2.85283 -6.95381,-9.30008 1.07337,-6.35322 2.20119,-6.66907 7.5981,-2.12787 5.59846,4.7108 13.06283,4.36713 15.7891,-0.72694 2.15081,-4.01883 -0.0323,-6.71624 -8.56376,-10.58102 -10.69736,-4.84596 -14.4988,-9.02214 -14.4988,-15.92806 0,-10.5682902 7.64857,-16.6342702 21.0303,-16.6788602 11.47893,-0.0382 12.66666,0.69262 12.66666,7.7943502 0,7.44404 -1.85786,8.71597 -6.07871,4.1616 -2.5975,-2.80275 -4.27999,-3.44863 -8.12994,-3.12094 -5.67147,0.48273 -8.53633,3.80903 -6.38483,7.41321 0.76608,1.28333 5.21115,4.18906 9.87793,6.45717 10.58401,5.14396 13.38222,8.45694 13.38222,15.84406 0,12.32495 -13.68766,20.05544 -29.73446,16.79338 z m 126.73446,-1.0576 -11.66667,-0.47417 V 29.977783 2.6963528 h 5.79883 c 3.18936,0 10.38936,0.38805 16,0.86232 l 10.20117,0.86231 v 3.97567 3.9756702 l -10.33333,-0.59847 -10.33334,-0.59847 0.13436,7.42715 c 0.11695,6.46472 0.4541,7.3684 2.60177,6.97373 1.35708,-0.24938 5.64661,-0.0562 9.53231,0.42928 6.79922,0.84951 7.0649,1.03611 7.0649,4.9621 v 4.0794 l -9.66667,-0.62037 -9.66667,-0.62037 v 7.72983 7.72982 l 10.66667,0.38187 10.66667,0.38187 v 4 c 0,4.56732 0.0467,4.55908 -21,3.70368 z M 403.96166,28.696363 V 1.3630228 l 10.33334,0.0318 c 14.14617,0.0435 20.26969,1.6783 24.66666,6.58511 3.04349,3.3963902 3.66667,5.3172102 3.66667,11.3018202 0,5.79994 -0.67094,8.00736 -3.43067,11.28711 -4.00612,4.76101 -12.02272,7.34616 -19.08206,6.15349 l -4.87907,-0.82431 0.5083,10.06582 0.5083,10.06582 h -6.14573 -6.14574 z m 23,-3.02171 c 1.30445,-1.15067 2.33334,-3.93379 2.33334,-6.31163 0,-5.19032 -3.17741,-8.28148 -9.13046,-8.8826 l -4.46378,-0.45073 0.0564,9 c 0.031,4.95 0.0897,9.34767 0.13045,9.77261 0.13362,1.39372 8.68703,-1.02202 11.07407,-3.12765 z"
       id="path1" />
  </g>
</svg>
