<?xml version="1.0" standalone="no"?>
<!DOCTYPE svg PUBLIC "-//W3C//DTD SVG 20010904//EN"
 "http://www.w3.org/TR/2001/REC-SVG-20010904/DTD/svg10.dtd">
<svg version="1.0" xmlns="http://www.w3.org/2000/svg"
 width="151.000000pt" height="177.000000pt" viewBox="0 0 151.000000 177.000000"
 preserveAspectRatio="xMidYMid meet">
<metadata>
Created by potrace 1.16, written by Peter Selinger 2001-2019
</metadata>
<g transform="translate(0.000000,177.000000) scale(0.100000,-0.100000)"
fill="#000000" stroke="none">
<path d="M592 1489 c-85 -11 -249 -52 -289 -71 l-28 -13 -3 -515 c-1 -283 0
-525 3 -537 9 -40 172 -116 318 -148 115 -26 283 -17 397 20 107 35 214 88
234 117 14 20 16 84 16 529 0 279 -3 514 -6 523 -14 36 -282 95 -453 101 -64
2 -149 -1 -189 -6z m413 -48 c50 -10 115 -27 145 -37 l55 -19 3 -172 c2 -160
1 -173 -15 -174 -24 -1 -715 -1 -815 0 l-78 1 0 175 0 174 65 20 c59 19 173
44 250 55 66 10 303 -4 390 -23z m-265 -611 l0 -180 -220 0 -220 0 0 180 0
180 220 0 220 0 0 -180z m468 3 l-3 -178 -217 -3 -218 -2 0 180 0 180 220 0
220 0 -2 -177z m-468 -413 l0 -210 -47 6 c-92 11 -209 46 -300 89 l-93 44 0
140 0 141 220 0 220 0 0 -210z m468 76 c2 -90 -1 -133 -10 -143 -31 -38 -230
-114 -333 -128 -27 -3 -60 -8 -72 -11 l-23 -4 0 210 0 210 218 -2 217 -3 3
-129z"/>
<path d="M730 1333 c-35 -13 -60 -47 -60 -80 0 -46 13 -68 49 -83 86 -35 160
65 99 134 -24 26 -62 39 -88 29z"/>
<path d="M500 910 l0 -60 -80 0 c-73 0 -80 -2 -80 -20 0 -18 7 -20 80 -20 l80
0 0 -60 c0 -53 2 -60 20 -60 18 0 20 7 20 60 l0 60 80 0 c73 0 80 2 80 20 0
18 -7 20 -80 20 l-80 0 0 60 c0 53 -2 60 -20 60 -18 0 -20 -7 -20 -60z"/>
<path d="M970 526 l0 -66 -80 0 c-73 0 -80 -2 -80 -20 0 -18 7 -20 80 -20 l80
0 0 -66 c0 -56 2 -65 16 -60 9 3 18 6 20 6 2 0 4 27 4 60 l0 60 80 0 c73 0 80
2 80 20 0 18 -7 20 -80 20 l-79 0 -3 62 c-2 50 -6 63 -20 66 -16 3 -18 -5 -18
-62z"/>
</g>
</svg>
